<svg width="493" height="493" viewBox="0 0 493 493" fill="none" xmlns="http://www.w3.org/2000/svg">
<path d="M436.667 491H56.3333C41.9232 491 28.1033 484.56 17.9139 473.097C7.72439 461.634 2 446.086 2 429.875V63.125C2 46.9136 7.72439 31.3663 17.9139 19.9031C28.1033 8.43993 41.9232 2 56.3333 2H328C342.41 2 356.23 8.43993 366.419 19.9031C376.609 31.3663 382.333 46.9136 382.333 63.125V93.6875M436.667 491C422.257 491 408.437 484.56 398.247 473.097C388.058 461.634 382.333 446.086 382.333 429.875V93.6875M436.667 491C451.077 491 464.897 484.56 475.086 473.097C485.276 461.634 491 446.086 491 429.875V154.812C491 138.601 485.276 123.054 475.086 111.591C464.897 100.127 451.077 93.6875 436.667 93.6875H382.333M273.667 2H165M110.667 368.75H273.667M110.667 124.25H273.667V246.5H110.667V124.25Z" stroke="#E36255" stroke-width="3" stroke-linecap="round" stroke-linejoin="round"/>
</svg>
