<svg width="444" height="411" viewBox="0 0 444 411" fill="none" xmlns="http://www.w3.org/2000/svg">
<path d="M221.174 311.243C221.174 311.795 221.622 312.243 222.174 312.242C222.727 312.242 223.174 311.794 223.174 311.242L221.174 311.243ZM223.174 311.242L223.112 218.419L221.112 218.42L221.174 311.243L223.174 311.242Z" fill="#E36255"/>
<circle cx="218.48" cy="350.309" r="41.1265" transform="rotate(134.02 218.48 350.309)" stroke="#E36255" stroke-width="3"/>
<path d="M369.425 68.4185C369.901 68.1384 370.06 67.5254 369.78 67.0494C369.5 66.5735 368.887 66.4147 368.411 66.6948L369.425 68.4185ZM368.411 66.6948L307.112 102.77L308.126 104.493L369.425 68.4185L368.411 66.6948Z" fill="#E36255"/>
<path d="M71.9585 76.0992C71.5073 75.7807 71.3997 75.1568 71.7182 74.7056C72.0367 74.2544 72.6606 74.1468 73.1118 74.4653L71.9585 76.0992ZM73.1118 74.4653L131.22 115.482L130.067 117.116L71.9585 76.0992L73.1118 74.4653Z" fill="#E36255"/>
<circle cx="397.7" cy="46.2925" r="41.1265" transform="rotate(5.16745 397.7 46.2925)" stroke="#E36255" stroke-width="3"/>
<circle cx="42.6265" cy="42.6265" r="41.1265" transform="matrix(-0.999972 0.00746577 0.00746577 0.999972 85.25 8.78906)" stroke="#E36255" stroke-width="3"/>
<circle cx="218.661" cy="139.953" r="126.25" fill="#E36255"/>
<path d="M281.337 239.753C280.314 239.753 279.491 239.009 279.491 238.084V187.992C279.491 173.54 266.488 161.778 250.51 161.778H238.54C238.867 164.182 238.846 168.17 236.094 171.518C233.099 175.162 227.773 177.013 220.264 177.013C212.755 177.013 207.429 175.162 204.434 171.518C201.682 168.17 201.65 164.182 201.988 161.778H190.018C174.04 161.778 161.037 173.54 161.037 187.992V238.084C161.037 239.009 160.214 239.753 159.191 239.753C158.168 239.753 157.346 239.009 157.346 238.084V187.992C157.346 171.699 172.005 158.439 190.018 158.439H204.213C204.793 158.439 205.341 158.687 205.689 159.107C206.037 159.527 206.143 160.08 205.974 160.586C205.963 160.634 204.329 165.823 207.398 169.543C209.665 172.281 213.989 173.674 220.253 173.674C226.518 173.674 230.863 172.281 233.12 169.524C236.199 165.775 234.543 160.643 234.533 160.586C234.364 160.08 234.47 159.536 234.818 159.107C235.166 158.687 235.714 158.439 236.294 158.439H250.489C268.502 158.439 283.161 171.699 283.161 187.992V238.084C283.161 239.009 282.339 239.753 281.316 239.753H281.337Z" fill="#F1E0CE"/>
<path d="M220.27 184.083C209.186 184.083 201.339 181.431 196.952 176.204C191.11 169.24 193.725 160.435 193.841 160.063C194.115 159.176 195.128 158.651 196.119 158.899C197.1 159.147 197.68 160.063 197.406 160.95C197.385 161.027 195.18 168.572 199.926 174.201C203.586 178.541 210.441 180.745 220.291 180.745C230.141 180.745 236.774 178.579 240.234 174.315C244.779 168.706 242.206 161.093 242.174 161.017C241.868 160.14 242.406 159.205 243.376 158.918C244.347 158.642 245.38 159.119 245.696 159.996C245.834 160.368 248.881 169.259 243.229 176.252C239.042 181.441 231.322 184.074 220.291 184.074L220.27 184.083Z" fill="#F1E0CE"/>
<path d="M184.375 239.753C183.352 239.753 182.529 239.009 182.529 238.084V194.813C182.529 193.888 183.352 193.144 184.375 193.144C185.398 193.144 186.22 193.888 186.22 194.813V238.084C186.22 239.009 185.398 239.753 184.375 239.753Z" fill="#F1E0CE"/>
<path d="M256.105 239.753C255.082 239.753 254.26 239.009 254.26 238.084V194.813C254.26 193.888 255.082 193.144 256.105 193.144C257.128 193.144 257.951 193.888 257.951 194.813V238.084C257.951 239.009 257.128 239.753 256.105 239.753Z" fill="#F1E0CE"/>
<path d="M188.346 140.975C187.956 140.975 187.566 140.861 187.228 140.632C186.616 140.212 172.379 130.196 173.887 113.368C174.689 104.42 179.73 95.2625 187.724 88.2511C196.551 80.5051 208.109 76.2314 220.269 76.2314C221.292 76.2314 222.115 76.9755 222.115 77.9008C222.115 78.8262 221.292 79.5702 220.269 79.5702C201.117 79.5702 179.392 93.2592 177.568 113.635C176.218 128.669 189.337 137.884 189.474 137.98C190.286 138.543 190.445 139.582 189.822 140.317C189.464 140.746 188.905 140.975 188.357 140.975H188.346Z" fill="#F1E0CE"/>
<path d="M248.434 120.638C233.606 120.638 224.019 111.242 220.444 106.987C212.819 116.136 203.824 119.074 197.433 119.913C190.019 120.877 184.503 119.293 184.271 119.226C183.301 118.94 182.773 117.996 183.09 117.118C183.406 116.24 184.45 115.764 185.41 116.05C186.222 116.288 205.3 121.554 218.915 103.172C219.263 102.695 219.864 102.389 220.497 102.437C221.13 102.456 221.71 102.761 222.037 103.257C222.522 103.992 234.154 121.22 255.626 116.508C256.618 116.288 257.619 116.841 257.852 117.738C258.094 118.635 257.482 119.532 256.491 119.751C253.654 120.371 250.965 120.648 248.423 120.648L248.434 120.638Z" fill="#F1E0CE"/>
<path d="M220.245 165.25C199.775 165.25 184.346 148.222 184.346 125.642C184.346 124.717 185.168 123.973 186.191 123.973C187.214 123.973 188.037 124.717 188.037 125.642C188.037 146.314 201.884 161.911 220.245 161.911C238.606 161.911 252.463 146.314 252.463 125.642C252.463 124.717 253.286 123.973 254.309 123.973C255.332 123.973 256.154 124.717 256.154 125.642C256.154 148.222 240.715 165.25 220.245 165.25Z" fill="#F1E0CE"/>
<path d="M252.182 140.975C251.623 140.975 251.075 140.746 250.716 140.317C250.094 139.582 250.252 138.533 251.064 137.98C251.191 137.894 264.31 128.612 262.971 113.635C261.494 97.1799 243.988 79.5702 220.269 79.5702C219.246 79.5702 218.424 78.8262 218.424 77.9008C218.424 76.9755 219.246 76.2314 220.269 76.2314C232.429 76.2314 243.977 80.4955 252.815 88.2511C260.809 95.2625 265.85 104.42 266.651 113.368C268.159 130.196 253.912 140.222 253.31 140.632C252.973 140.861 252.583 140.975 252.193 140.975H252.182Z" fill="#F1E0CE"/>
</svg>
