<svg width="311" height="328" viewBox="0 0 311 328" fill="none" xmlns="http://www.w3.org/2000/svg">
<g filter="url(#filter0_d_218_945)">
<path d="M216 150C216.667 152 221.8 154.8 237 150C256 144 292 108 297 96.5" stroke="#C2C2C2" stroke-width="3" stroke-linecap="round"/>
<path d="M264.876 57.1563C264.876 57.1563 244.606 90.7255 225.389 128.303C206.681 164.887 192.214 205.773 186.691 223.958L168.525 216.837C168.525 216.837 175.89 175.3 196.275 123.61C207.207 95.9076 221.887 65.2717 241.187 36.5752C241.187 36.5752 253.829 50.8018 264.876 57.1245V57.1563Z" fill="#FFBF54"/>
<path d="M251.445 24.7447C254.602 23.164 263.298 6.55873 272.767 0.236049C276.318 -2.12681 296.686 13.9405 293.3 17.6233C275.924 36.5914 271.978 45.2931 270.4 48.4544C270.4 48.4544 252.234 33.4302 251.445 24.7447Z" fill="#E36255"/>
<path d="M265.104 35.6465C265.104 35.6465 271.992 27.9059 275.148 20.0025C278.304 12.0992 280.096 2.66382 280.096 2.66382L288.562 9.23138L293.017 14.5274C293.017 14.5274 294.135 16.9554 292.541 18.4708C290.946 19.9863 273.093 43.4195 273.093 43.4195L265.104 35.6465Z" fill="#BD4940"/>
<path d="M264.879 57.1564C254.604 53.1966 241.189 36.6079 241.189 36.6079L253.042 23.1641C261.738 31.8659 268.972 40.03 272.408 42.784C273.065 43.3218 273.213 44.2666 272.737 44.9674L264.895 56.749" fill="#BFBFBF"/>
<path d="M256.184 51.6485C256.184 51.6485 262.957 38.6449 265.11 35.6465L272.837 43.3543C272.837 43.3543 273.938 44.739 272.179 45.8145C270.42 46.89 264.732 57.3034 264.732 57.3034L256.184 51.6652V51.6485Z" fill="#B0BFBF"/>
<path d="M251.449 26.325C255.658 34.3587 262.644 40.6816 270.404 45.2932C262.447 40.9912 255.329 34.5379 251.449 26.325Z" fill="#201F2C"/>
<path d="M248.293 29.4863C252.501 37.52 259.488 43.843 267.247 48.4546C259.291 44.1526 252.173 37.6993 248.293 29.4863Z" fill="#201F2C"/>
<path d="M245.135 32.6484C249.343 40.6822 256.33 47.0043 264.089 51.6159C256.133 47.3139 249.014 40.8614 245.135 32.6484Z" fill="#201F2C"/>
<path d="M168.508 216.853C168.508 216.853 166.93 253.225 171.665 261.129C175.347 255.686 187.463 224.757 185.885 223.176L168.508 216.853Z" fill="#FFE4A1"/>
<path d="M170.893 265.072L169.413 252.606L168.525 243.725C168.525 243.725 174.049 247.684 178.8 246.104L174.854 255.327" fill="#001128"/>
<path d="M256.217 51.6485C256.217 51.6485 256.184 51.6322 256.184 51.6485C256.085 52.0233 253.011 56.4557 252.682 58.9815C251.762 65.9071 218.275 125.728 218.275 125.728C218.275 125.728 182.158 221.237 183.226 222.198C184.295 223.16 186.679 223.958 186.679 223.958C186.679 223.958 203.348 175.707 223.799 131.464C233.876 109.677 244.808 92.4689 253.028 78.5036C259.225 67.9766 264.075 57.7761 264.732 57.4013L256.217 51.6326V51.6485Z" fill="#FFAB1B"/>
<path d="M189.01 141C174.51 134 164.465 135.234 154.51 145.5C138.51 162 140.51 168 138.51 180.5" stroke="#C2C2C2" stroke-width="3" stroke-linecap="round"/>
<path d="M195.698 101.415C200.021 113.588 207.057 120.432 219.65 113.833C222.97 111.959 226.291 109.302 229.76 106.336C229.924 106.19 230.204 106.402 230.089 106.597C228.083 110.476 225.338 113.979 221.869 116.684C208.191 126.722 194.991 117.189 195.254 101.415C195.287 101.122 195.648 101.138 195.698 101.415Z" fill="black"/>
<path d="M237.309 86.6105C239.236 79.9115 239.085 73.9969 236.972 73.3999C234.859 72.8029 231.584 77.7495 229.658 84.4485C227.732 91.1475 227.883 97.0621 229.996 97.6591C232.109 98.2562 235.383 93.3095 237.309 86.6105Z" fill="black"/>
<path d="M216.782 85.0229C218.709 78.3238 218.557 72.4093 216.444 71.8123C214.331 71.2152 211.057 76.1619 209.131 82.8609C207.204 89.5599 207.355 95.4744 209.468 96.0715C211.581 96.6685 214.856 91.7219 216.782 85.0229Z" fill="black"/>
<path d="M234.07 83.2455C234.942 83.2455 235.649 82.5374 235.649 81.6645C235.649 80.7915 234.942 80.0842 234.07 80.0842C233.199 80.0842 232.492 80.7915 232.492 81.6645C232.492 82.5374 233.199 83.2455 234.07 83.2455Z" fill="#201F2C"/>
<path d="M213.541 81.6644C214.413 81.6644 215.119 80.9572 215.119 80.0842C215.119 79.2112 214.413 78.5032 213.541 78.5032C212.67 78.5032 211.963 79.2112 211.963 80.0842C211.963 80.9572 212.67 81.6644 213.541 81.6644Z" fill="#201F2C"/>
<path d="M234.068 65.8583C238.014 62.4688 244.162 63.8376 246.102 68.71C246.316 69.3455 246.546 69.9642 246.71 70.5997C246.283 70.0783 245.954 69.5247 245.576 69.0195C242.913 65.0923 238.425 64.2283 234.068 65.8742V65.8583Z" fill="black"/>
<path d="M211.959 65.8583C215.904 62.4688 222.053 63.8376 223.993 68.71C224.206 69.3455 224.436 69.9642 224.601 70.5997C224.173 70.0783 223.845 69.5247 223.466 69.0195C220.803 65.0923 216.315 64.2283 211.959 65.8742V65.8583Z" fill="black"/>
<path d="M48.7192 256.065C55.283 249.306 117.274 181.413 136.246 159.409C139.361 155.804 144.761 155.342 148.442 158.357C152.335 161.549 152.747 167.366 149.341 171.062L59.9975 268.452C59.464 269.036 58.6154 269.197 57.9104 268.833C55.9179 267.778 51.8535 265.248 48.3805 260.703C47.3098 259.301 47.4845 257.303 48.7242 256.042L48.7192 256.065Z" fill="#201F2C" stroke="#201F2C" stroke-width="0.61" stroke-miterlimit="10"/>
<path d="M23.4346 283.839C23.4346 283.839 45.9814 286.122 58.2469 268.751C58.2469 268.751 50.7276 265.669 47.5255 258.886C47.5255 258.886 33.2676 272.728 23.4346 283.839Z" stroke="#201F2C" stroke-width="0.61" stroke-miterlimit="10"/>
<path d="M43.3882 271.953C43.0308 271.405 42.2951 271.253 41.745 271.612C41.1948 271.971 41.0387 272.706 41.396 273.253C41.7533 273.801 42.4889 273.953 43.0391 273.594C43.5892 273.235 43.7455 272.5 43.3882 271.953Z" fill="#201F2C"/>
<path d="M23.4351 283.84C23.4351 283.84 37.0202 277.641 42.7383 272.181L23.4351 283.84Z" fill="#201F2C"/>
</g>
<defs>
<filter id="filter0_d_218_945" x="10.8125" y="0" width="299.688" height="327.243" filterUnits="userSpaceOnUse" color-interpolation-filters="sRGB">
<feFlood flood-opacity="0" result="BackgroundImageFix"/>
<feColorMatrix in="SourceAlpha" type="matrix" values="0 0 0 0 0 0 0 0 0 0 0 0 0 0 0 0 0 0 127 0" result="hardAlpha"/>
<feOffset dy="31"/>
<feGaussianBlur stdDeviation="6"/>
<feComposite in2="hardAlpha" operator="out"/>
<feColorMatrix type="matrix" values="0 0 0 0 0 0 0 0 0 0 0 0 0 0 0 0 0 0 0.13 0"/>
<feBlend mode="normal" in2="BackgroundImageFix" result="effect1_dropShadow_218_945"/>
<feBlend mode="normal" in="SourceGraphic" in2="effect1_dropShadow_218_945" result="shape"/>
</filter>
</defs>
</svg>
