<svg width="200" height="119" viewBox="0 0 200 119" fill="none" xmlns="http://www.w3.org/2000/svg">
<path d="M156.737 55.8457C156.737 55.8457 144.882 56.9032 143.962 63.0805C143.042 69.2651 150.95 76.5215 149.285 78.1075" stroke="#BFBFBF" stroke-width="2" stroke-miterlimit="10" stroke-linecap="round"/>
<path d="M150.936 49.0534C151.848 53.1378 161.965 92.7003 165.514 105.106C166.093 107.141 164.963 109.263 162.965 109.9C160.85 110.573 158.605 109.314 158.062 107.148L143.65 50.2412C143.564 49.9008 143.708 49.5458 144.013 49.372C144.882 48.8868 146.793 47.9889 149.306 47.8006C150.081 47.7426 150.777 48.2932 150.943 49.0608L150.936 49.0534Z" fill="#CFDFDC" stroke="#CFDFDC" stroke-width="0.61" stroke-miterlimit="10"/>
<path d="M146.779 32.8965C146.779 32.8965 140.508 40.7324 143.962 49.5168C143.962 49.5168 146.91 47.4672 150.183 47.9234C150.183 47.9234 148.51 39.2549 146.779 32.8965Z" stroke="#CFDFDC" stroke-width="0.61" stroke-miterlimit="10"/>
<path d="M146.359 43.2091C146.647 43.2091 146.881 42.9725 146.881 42.6805C146.881 42.3885 146.647 42.1519 146.359 42.1519C146.071 42.1519 145.838 42.3885 145.838 42.6805C145.838 42.9725 146.071 43.2091 146.359 43.2091Z" fill="white"/>
<path d="M146.779 32.8965C146.779 32.8965 145.794 39.4577 146.431 42.9121Z" fill="white"/>
<path d="M187.312 25.4008C187.312 25.4008 178.383 40.3193 169.917 57.0191C161.676 73.2772 155.303 91.4473 152.869 99.5293L144.867 96.3645C144.867 96.3645 148.112 77.9049 157.092 54.9336C161.907 42.6223 168.374 29.0074 176.876 16.2544C176.876 16.2544 182.445 22.5768 187.312 25.3867V25.4008Z" fill="#FFBF54"/>
<path d="M181.396 10.9968C182.786 10.2943 186.617 2.91476 190.788 0.104902C192.352 -0.945175 201.325 6.19529 199.833 7.83197C192.179 16.2616 190.441 20.1287 189.745 21.5336C189.745 21.5336 181.743 14.8567 181.396 10.9968Z" fill="#CB4940"/>
<path d="M187.414 15.8419C187.414 15.8419 190.448 12.4019 191.838 8.88957C193.229 5.37725 194.018 1.18408 194.018 1.18408L197.748 4.10277L199.71 6.45639C199.71 6.45639 200.203 7.53538 199.5 8.20888C198.798 8.88238 190.933 19.2963 190.933 19.2963L187.414 15.8419Z" fill="#BD4940"/>
<path d="M187.312 25.401C182.786 23.6412 176.876 16.269 176.876 16.269L182.098 10.2944C185.929 14.1616 189.115 17.7898 190.629 19.0137C190.919 19.2527 190.984 19.6726 190.774 19.984L187.319 25.2199" fill="#BFBFBF"/>
<path d="M183.481 22.9532C183.481 22.9532 186.465 17.1743 187.414 15.8418L190.818 19.2672C190.818 19.2672 191.303 19.8826 190.528 20.3606C189.753 20.8385 187.247 25.4663 187.247 25.4663L183.481 22.9607V22.9532Z" fill="#B0BFBF"/>
<path d="M181.396 11.6992C183.249 15.2695 186.327 18.0794 189.745 20.1289C186.24 18.217 183.105 15.3491 181.396 11.6992Z" fill="white"/>
<path d="M180.005 13.104C181.859 16.6743 184.937 19.4842 188.355 21.5337C184.85 19.6218 181.714 16.7539 180.005 13.104Z" fill="white"/>
<path d="M178.615 14.5093C180.469 18.0795 183.547 20.8891 186.965 22.9386C183.46 21.0267 180.324 18.1592 178.615 14.5093Z" fill="white"/>
<path d="M144.86 96.3716C144.86 96.3716 144.165 112.536 146.25 116.048C147.872 113.629 153.21 99.8842 152.514 99.1817L144.86 96.3716Z" fill="#FFE4A1"/>
<path d="M145.91 117.8L145.258 112.26L144.867 108.313C144.867 108.313 147.3 110.073 149.393 109.371L147.655 113.47" fill="#001128"/>
<path d="M183.495 22.9529C183.495 22.9529 183.481 22.9456 183.481 22.9529C183.437 23.1194 182.083 25.0892 181.938 26.2117C181.533 29.2895 166.781 55.8746 166.781 55.8746C166.781 55.8746 150.871 98.3196 151.341 98.7468C151.812 99.1741 152.862 99.529 152.862 99.529C152.862 99.529 160.205 78.0855 169.214 58.4237C173.654 48.7413 178.47 41.0938 182.091 34.8875C184.821 30.2093 186.957 25.676 187.247 25.5095L183.495 22.9458V22.9529Z" fill="#FFAB1B"/>
<path d="M172.98 52.2686C175.696 53.2679 179.122 65.7386 165.043 74.5954C155.165 80.809 169.678 81.0842 170.612 79.5127" stroke="#BFBFBF" stroke-width="2" stroke-miterlimit="10" stroke-linecap="round"/>
<path d="M156.838 45.0697C158.743 50.4794 161.842 53.5211 167.39 50.5881C168.853 49.7553 170.316 48.5748 171.844 47.2568C171.916 47.1916 172.039 47.2858 171.988 47.3727C171.105 49.0963 169.895 50.6533 168.367 51.8554C162.342 56.3165 156.527 52.0798 156.643 45.0697C156.657 44.9393 156.817 44.9466 156.838 45.0697Z" fill="black"/>
<path d="M175.167 38.4902C176.016 35.5131 175.949 32.8846 175.018 32.6193C174.087 32.354 172.645 34.5523 171.796 37.5294C170.948 40.5065 171.014 43.135 171.945 43.4003C172.876 43.6657 174.318 41.4673 175.167 38.4902Z" fill="black"/>
<path d="M166.124 37.7846C166.973 34.8075 166.906 32.1791 165.975 31.9137C165.044 31.6484 163.602 33.8467 162.753 36.8238C161.905 39.8009 161.971 42.4294 162.902 42.6948C163.833 42.9601 165.275 40.7618 166.124 37.7846Z" fill="black"/>
<path d="M173.741 36.9947C174.125 36.9947 174.436 36.6801 174.436 36.2921C174.436 35.9042 174.125 35.5898 173.741 35.5898C173.357 35.5898 173.045 35.9042 173.045 36.2921C173.045 36.6801 173.357 36.9947 173.741 36.9947Z" fill="white"/>
<path d="M164.696 36.2926C165.08 36.2926 165.391 35.9783 165.391 35.5903C165.391 35.2024 165.08 34.8877 164.696 34.8877C164.312 34.8877 164 35.2024 164 35.5903C164 35.9783 164.312 36.2926 164.696 36.2926Z" fill="white"/>
<path d="M173.741 29.2679C175.479 27.7616 178.187 28.3699 179.042 30.5353C179.136 30.8177 179.237 31.0927 179.31 31.3751C179.121 31.1434 178.977 30.8973 178.81 30.6728C177.637 28.9275 175.66 28.5436 173.741 29.275V29.2679Z" fill="black"/>
<path d="M164 29.2679C165.739 27.7616 168.447 28.3699 169.302 30.5353C169.396 30.8177 169.497 31.0927 169.57 31.3751C169.381 31.1434 169.236 30.8973 169.07 30.6728C167.897 28.9275 165.92 28.5436 164 29.275V29.2679Z" fill="black"/>
<path d="M16.8592 109.957C14.549 109.957 12.3837 109.544 10.3415 108.726C8.30649 107.908 6.51047 106.757 4.96794 105.279C3.41817 103.802 2.20875 102.078 1.32524 100.101C0.441725 98.1242 0 95.9804 0 93.6702C0 91.36 0.376629 89.7018 1.13703 88.6083C1.89743 87.5148 2.68672 86.9644 3.49781 86.9644C3.93233 86.9644 4.31622 87.0804 4.65659 87.3049C4.99696 87.5366 5.2649 87.7609 5.46768 87.9927C5.67045 88.2244 5.77178 88.3475 5.77178 88.3837C5.77178 88.3258 5.59799 88.507 5.24314 88.9343C4.88828 89.3616 4.53344 89.9988 4.1641 90.8533C3.79476 91.7079 3.61371 92.7433 3.61371 93.9527C3.61371 95.3215 3.90335 96.7119 4.48995 98.1313C5.07654 99.5435 5.93112 100.854 7.05361 102.056C8.17611 103.259 9.56655 104.229 11.2105 104.975C12.8544 105.721 14.7301 106.09 16.8519 106.09C18.9738 106.09 20.9219 105.728 22.7179 104.997C24.5139 104.265 26.0781 103.317 27.4179 102.143C28.7649 100.97 29.8078 99.7246 30.5537 98.3994C31.2996 97.0741 31.6761 95.8066 31.6761 94.5899L35.2971 94.1338C35.2971 95.8646 34.9639 97.5156 34.2977 99.0871C33.6314 100.651 32.7045 102.1 31.5096 103.425C30.3146 104.75 28.9387 105.895 27.3745 106.872C25.8102 107.843 24.1373 108.603 22.3485 109.154C20.5598 109.704 18.7276 109.972 16.8519 109.972L16.8592 109.957ZM11.2829 118.764C10.6021 118.764 10.0518 118.568 9.63178 118.17C9.21175 117.771 9.00173 117.257 9.00173 116.62C9.00173 115.65 9.29138 114.867 9.87798 114.295C10.4646 113.716 11.2032 113.426 12.094 113.426C12.7964 113.426 13.3541 113.622 13.7669 114.02C14.1724 114.418 14.3752 114.947 14.3752 115.62C14.3752 116.562 14.0928 117.323 13.5207 117.902C12.9486 118.481 12.2026 118.771 11.2829 118.771V118.764ZM17.2719 118.764C16.5912 118.764 16.0409 118.568 15.6209 118.17C15.2008 117.771 14.9907 117.257 14.9907 116.62C14.9907 115.65 15.2805 114.867 15.8671 114.295C16.4536 113.716 17.1923 113.426 18.083 113.426C18.7855 113.426 19.3432 113.622 19.756 114.02C20.1615 114.418 20.3642 114.947 20.3642 115.62C20.3642 116.562 20.0819 117.323 19.5098 117.902C18.9376 118.481 18.1917 118.771 17.2719 118.771V118.764ZM30.4668 96.7699C29.2429 96.7699 28.2796 96.7265 27.5772 96.6324C26.8675 96.5382 26.3678 96.357 26.0709 96.0818C25.774 95.8066 25.6219 95.4158 25.6219 94.8944C25.6219 94.4671 25.6943 94.0397 25.8464 93.6196C25.9985 93.1924 26.2085 92.8012 26.4765 92.4319C27.0196 92.526 27.5555 92.6057 28.0842 92.6854C28.6128 92.7651 29.1849 92.8159 29.7932 92.8449C30.4016 92.8738 31.0895 92.8884 31.8499 92.8884H40.1564L39.5843 96.7699H30.4595H30.4668ZM39.5916 96.7699L40.1636 92.8884C40.4316 92.8884 40.5909 93.0549 40.6344 93.388C40.6778 93.7211 40.6561 94.1917 40.5764 94.8C40.4678 95.3793 40.3447 95.8502 40.2071 96.2123C40.0695 96.5744 39.8668 96.7625 39.5988 96.7625L39.5916 96.7699Z" fill="#CFDFDC"/>
<path d="M39.6206 96.777C39.3526 96.777 39.1934 96.6105 39.1499 96.2774C39.1065 95.9443 39.1282 95.4737 39.2078 94.8654C39.3165 94.2571 39.4396 93.7792 39.5772 93.4315C39.7148 93.0839 39.9175 92.91 40.1855 92.91L39.6133 96.7915L39.6206 96.777ZM39.6206 96.777L40.1927 92.8955H45.8125L44.7117 94.1267V92.852C44.7117 92.2437 44.7986 91.4183 44.9796 90.3682C45.1534 89.3181 45.3562 88.1374 45.5879 86.8339C45.8197 85.5231 46.0587 84.198 46.2977 82.8438C46.5439 81.4895 46.7467 80.2006 46.906 78.9622C47.0726 77.7311 47.1522 76.659 47.1522 75.7465C47.1522 75.1382 47.116 74.5591 47.0508 74.0159C46.9856 73.4655 46.8915 72.9513 46.7829 72.4661C47.1884 72.1619 47.6084 71.9159 48.0429 71.7348C48.4775 71.5538 48.8975 71.4593 49.303 71.4593C49.9548 71.4593 50.44 71.7057 50.7514 72.191C51.0628 72.6762 51.2221 73.4076 51.2221 74.378C51.2221 75.1964 51.128 76.1739 50.9397 77.2964C50.7514 78.4189 50.5414 79.585 50.3097 80.7872C50.0779 81.9893 49.8679 83.1768 49.6796 84.3427C49.4913 85.5159 49.3972 86.559 49.3972 87.4715C49.3972 89.1443 49.7665 90.4696 50.498 91.44C51.2294 92.4177 52.265 92.9029 53.5903 92.9029H55.0531L54.481 96.7845H51.8739C50.9252 96.7845 50.1504 96.4876 49.5493 95.8937C48.9482 95.2999 48.5065 94.5466 48.2023 93.6342L49.303 94.4089H48.2457L46.8625 96.7845H39.6133L39.6206 96.777ZM46.906 67.3462C46.2253 67.3462 45.6749 67.1504 45.2548 66.7521C44.8348 66.3538 44.6248 65.8399 44.6248 65.2026C44.6248 64.2322 44.9144 63.457 45.501 62.8776C46.0876 62.2983 46.8263 62.0088 47.7171 62.0088C48.4196 62.0088 48.9771 62.2042 49.3899 62.6025C49.7955 63.0008 49.9983 63.5294 49.9983 64.2029C49.9983 65.1444 49.7158 65.9051 49.1437 66.4844C48.5716 67.0638 47.8257 67.3532 46.906 67.3532V67.3462ZM52.8951 67.3462C52.2143 67.3462 51.6639 67.1504 51.2439 66.7521C50.8239 66.3538 50.6139 65.8399 50.6139 65.2026C50.6139 64.2322 50.9035 63.457 51.4901 62.8776C52.0767 62.2983 52.8154 62.0088 53.7062 62.0088C54.4086 62.0088 54.9662 62.2042 55.379 62.6025C55.7845 63.0008 55.9874 63.5294 55.9874 64.2029C55.9874 65.1444 55.7049 65.9051 55.1328 66.4844C54.5607 67.0638 53.8148 67.3532 52.8951 67.3532V67.3462ZM54.481 96.777L55.0531 92.8955C55.3211 92.8955 55.4804 93.062 55.5239 93.3951C55.5673 93.7282 55.5456 94.1991 55.4659 94.8074C55.3573 95.3868 55.2341 95.8573 55.0966 96.2194C54.959 96.5815 54.7562 96.77 54.4883 96.77L54.481 96.777Z" fill="#CFDFDC"/>
<path d="M54.524 96.777C54.2561 96.777 54.0967 96.6105 54.0533 96.2774C54.0098 95.9442 54.0315 95.4737 54.1112 94.8654C54.2198 94.2571 54.3429 93.7791 54.4805 93.4315C54.6181 93.0839 54.8209 92.9099 55.0889 92.9099L54.5168 96.7915L54.524 96.777ZM54.524 96.777L55.0961 92.8955H60.1871L59.8613 93.8081C59.8613 92.3815 59.9699 90.7664 60.1871 88.9704C60.4044 87.1744 60.6723 85.3784 60.9982 83.5825C61.3241 81.7865 61.6428 80.1423 61.9542 78.6577C62.2656 77.1659 62.6421 75.5078 63.0767 73.6828L63.4026 75.7394L60.9186 73.0021C61.4617 72.4879 62.0918 72.0966 62.8087 71.8359C63.5257 71.5752 64.1847 71.4448 64.7857 71.4448C65.4375 71.4448 65.9155 71.6113 66.2341 71.9445C66.5455 72.2776 66.7049 72.8718 66.7049 73.7263C66.7049 73.8205 66.5963 74.3562 66.379 75.3483C66.1617 76.3332 65.8938 77.5934 65.5824 79.1142C65.271 80.6351 64.9523 82.279 64.6264 84.046C64.3005 85.8131 64.0254 87.5436 63.8153 89.2455C63.5981 90.9473 63.4895 92.4684 63.4895 93.8081L61.8166 96.777H54.5313H54.524ZM56.8052 105.764C56.1245 105.764 55.5741 105.569 55.154 105.171C54.734 104.772 54.524 104.258 54.524 103.621C54.524 102.65 54.8137 101.868 55.4002 101.296C55.9868 100.717 56.7256 100.427 57.6163 100.427C58.3188 100.427 58.8764 100.623 59.2891 101.021C59.6947 101.419 59.8974 101.948 59.8974 102.621C59.8974 103.563 59.6151 104.323 59.0429 104.903C58.4708 105.482 57.7249 105.772 56.8052 105.772V105.764ZM62.7942 105.764C62.1135 105.764 61.5631 105.569 61.1431 105.171C60.7231 104.772 60.5131 104.258 60.5131 103.621C60.5131 102.65 60.8027 101.868 61.3893 101.296C61.9759 100.717 62.7145 100.427 63.6053 100.427C64.3078 100.427 64.8654 100.623 65.2782 101.021C65.6838 101.419 65.8865 101.948 65.8865 102.621C65.8865 103.563 65.6041 104.323 65.032 104.903C64.4599 105.482 63.7139 105.772 62.7942 105.772V105.764Z" fill="#CFDFDC"/>
<path d="M78.2197 112.289C77.1335 112.289 76.3007 112.137 75.7141 111.833C75.1275 111.529 74.7291 111.152 74.5119 110.718C74.2946 110.276 74.186 109.892 74.186 109.552C76.1124 109.552 77.7708 109.269 79.154 108.705C80.5372 108.14 81.7176 107.162 82.6953 105.764C83.6729 104.367 84.513 102.433 85.2227 99.9708C85.9252 97.5086 86.5407 94.3874 87.0548 90.6143C87.3518 88.5793 87.598 86.8412 87.7863 85.4145C87.9746 83.9878 88.1412 82.7641 88.2715 81.743C88.4091 80.7219 88.5322 79.8312 88.6409 79.0708C88.7495 78.3104 88.8436 77.6005 88.9233 76.9487C89.003 76.297 89.0971 75.5871 89.2058 74.8267L89.452 76.6952L87.4532 73.0021C88.2136 72.5169 88.9523 72.133 89.6692 71.8578C90.3862 71.5826 90.98 71.4448 91.4435 71.4448C91.9866 71.4448 92.3921 71.6113 92.6673 71.9445C92.9353 72.2776 93.0729 72.5819 93.0729 72.8571C93.0729 73.0672 93.0004 73.7478 92.8484 74.8847C92.6963 76.029 92.5008 77.4703 92.2546 79.2228C92.0083 80.9753 91.7477 82.8801 91.458 84.9513C91.1755 87.0225 90.8786 89.1008 90.5816 91.201C90.2268 93.7863 89.7706 96.3353 89.1985 98.841C88.6264 101.354 87.8804 103.614 86.9607 105.641C86.041 107.662 84.8605 109.277 83.4411 110.479C82.0145 111.681 80.2692 112.282 78.2052 112.282L78.2197 112.289ZM93.6957 96.777C92.747 96.777 91.9722 96.4801 91.3711 95.8863C90.77 95.2924 90.3354 94.5395 90.0675 93.6271L91.4507 94.4018H88.764L91.1248 87.464C91.1248 89.079 91.4941 90.3825 92.2256 91.3891C92.957 92.3957 93.9926 92.8955 95.3179 92.8955H96.9039L96.3318 96.777H93.6885H93.6957ZM96.339 96.777L96.9112 92.8955C97.1791 92.8955 97.3384 93.062 97.3818 93.3951C97.4253 93.7282 97.4036 94.1991 97.3239 94.8074C97.2153 95.3868 97.0922 95.8573 96.9546 96.2194C96.817 96.5815 96.6142 96.7699 96.3463 96.7699L96.339 96.777Z" fill="#CFDFDC"/>
<path d="M96.3828 96.7772C96.1148 96.7772 95.9556 96.6106 95.9121 96.2775C95.8687 95.9444 95.8904 95.4739 95.9701 94.8655C96.0787 94.2572 96.2018 93.7793 96.3394 93.4317C96.477 93.084 96.6797 92.9101 96.9477 92.9101L96.3756 96.7917L96.3828 96.7772ZM96.3828 96.7772L96.9549 92.8956H105.428L104.733 93.9023C103.972 92.7798 103.408 91.4691 103.045 89.9773C102.676 88.4854 102.495 86.8413 102.495 85.0525C102.495 82.5613 102.828 80.2657 103.494 78.1872C104.161 76.1016 105.088 74.2911 106.283 72.7558C107.477 71.2205 108.882 70.0331 110.497 69.2003C112.112 68.3674 113.872 67.9471 115.769 67.9471C116.885 67.9471 117.877 68.0774 118.76 68.3382C119.644 68.5989 120.404 68.9248 121.042 69.3159C121.679 69.7142 122.215 70.1124 122.649 70.5252C123.084 70.938 123.41 71.2787 123.627 71.5539C123.627 71.648 123.54 72.0969 123.359 72.9008C123.185 73.7046 122.953 74.7619 122.664 76.0726C122.381 77.3834 122.077 78.8247 121.766 80.4107C121.454 81.9895 121.157 83.6042 120.868 85.2481C120.578 86.892 120.354 88.4564 120.173 89.9483C119.999 91.4401 119.905 92.7291 119.905 93.8298L118.232 96.7991H96.3684L96.3828 96.7772ZM116.298 93.8083C116.298 92.5626 116.392 91.1214 116.581 89.4992C116.769 87.8697 117.015 86.1967 117.312 84.4804C117.609 82.7641 117.92 81.113 118.246 79.527C118.572 77.9483 118.869 76.5506 119.144 75.3485C119.412 74.1463 119.622 73.2556 119.752 72.6762V72.9948C119.564 72.8427 119.137 72.6038 118.471 72.2851C117.804 71.9665 116.928 71.8071 115.842 71.8071C114.183 71.8071 112.619 72.2997 111.142 73.2919C109.664 74.284 108.455 75.7469 107.521 77.695C106.587 79.6431 106.116 82.0619 106.116 84.9514C106.116 86.8705 106.297 88.3912 106.666 89.5137C107.036 90.6362 107.448 91.4617 107.905 91.9759C108.368 92.49 108.716 92.8595 108.962 93.0696L107.659 92.8885H117.066L116.291 93.8008L116.298 93.8083ZM112.757 63.9209C112.076 63.9209 111.526 63.7251 111.106 63.3268C110.686 62.9285 110.476 62.4146 110.476 61.7773C110.476 60.8069 110.765 60.0244 111.352 59.4523C111.938 58.873 112.677 58.5835 113.568 58.5835C114.27 58.5835 114.828 58.7789 115.241 59.1772C115.646 59.5755 115.849 60.1041 115.849 60.7776C115.849 61.7191 115.567 62.4794 114.995 63.0588C114.422 63.6381 113.676 63.9279 112.757 63.9279V63.9209ZM118.746 63.9209C118.065 63.9209 117.515 63.7251 117.095 63.3268C116.675 62.9285 116.465 62.4146 116.465 61.7773C116.465 60.8069 116.754 60.0244 117.341 59.4523C117.928 58.873 118.666 58.5835 119.557 58.5835C120.259 58.5835 120.817 58.7789 121.23 59.1772C121.635 59.5755 121.838 60.1041 121.838 60.7776C121.838 61.7191 121.556 62.4794 120.984 63.0588C120.412 63.6381 119.666 63.9279 118.746 63.9279V63.9209Z" fill="#CFDFDC"/>
<path d="M75.4242 61.2774C76.1991 61.0022 76.8437 60.8647 77.3579 60.8647C77.901 60.8647 78.3427 61.0167 78.6831 61.3209C79.0235 61.6251 79.19 62.0814 79.19 62.6897C79.19 63.1749 79.0887 64.0584 78.8859 65.3329C78.6831 66.6075 78.4151 68.1574 78.0892 69.9606C77.7633 71.7711 77.423 73.7191 77.0682 75.8047C76.7133 77.8904 76.3729 80.0052 76.047 82.1488C75.7212 84.2924 75.4532 86.3417 75.2504 88.2825C75.0477 90.2306 74.9463 91.947 74.9463 93.4388C74.9463 93.8372 74.9608 94.2065 74.9898 94.5541C75.0187 94.9017 75.0838 95.2203 75.1925 95.5099C75.3011 95.7996 75.4604 96.0676 75.6777 96.3066C75.3808 96.6108 75.0187 96.8643 74.5987 97.0598C74.1786 97.2553 73.7224 97.3568 73.2372 97.3568C72.5564 97.3568 72.0278 97.125 71.6512 96.6687C71.2674 96.2125 71.0791 95.5101 71.0791 94.5686C71.0791 93.9893 71.1443 93.0406 71.2819 91.7154C71.4195 90.3901 71.6005 88.8111 71.8323 86.9717C72.064 85.1322 72.3247 83.1627 72.6289 81.0625C72.9258 78.9624 73.23 76.8476 73.5414 74.7184C73.8528 72.5893 74.1497 70.576 74.4394 68.6714C74.7218 66.774 74.9897 65.1229 75.236 63.718" fill="#CFDFDC"/>
<path d="M78.6108 52.0293C78.6108 52.0293 73.1794 57.8449 75.9096 63.5732C75.9096 63.5732 76.3948 62.7473 78.6108 62.8922C78.6108 62.8922 80.5371 57.6204 79.0814 53.449L78.6108 52.0293Z" stroke="#CFDFDC" stroke-width="0.61" stroke-miterlimit="10" stroke-linecap="round"/>
<path d="M77.1845 59.2204C77.3765 59.2204 77.5322 59.0617 77.5322 58.8658C77.5322 58.6698 77.3765 58.5107 77.1845 58.5107C76.9925 58.5107 76.8369 58.6698 76.8369 58.8658C76.8369 59.0617 76.9925 59.2204 77.1845 59.2204Z" fill="black" stroke="#CFDFDC" stroke-width="0.61" stroke-miterlimit="10"/>
<path d="M78.4371 52.3628C77.8288 54.5209 77.0032 56.7441 77.2494 59.0181C76.6918 56.7803 77.5463 54.405 78.4371 52.3628Z" fill="#CFDFDC"/>
</svg>
