<svg width="347" height="347" viewBox="0 0 347 347" fill="none" xmlns="http://www.w3.org/2000/svg">
<path d="M141.582 27.0962C149.7 -6.36539 197.3 -6.36539 205.418 27.0962C206.636 32.123 209.024 36.7912 212.387 40.7209C215.75 44.6505 219.993 47.7306 224.772 49.7103C229.55 51.69 234.729 52.5134 239.885 52.1136C245.042 51.7138 250.032 50.102 254.448 47.4094C283.851 29.4972 317.522 63.1493 299.61 92.5711C296.921 96.9854 295.312 101.972 294.913 107.125C294.514 112.278 295.337 117.453 297.314 122.229C299.291 127.004 302.368 131.246 306.293 134.609C310.218 137.971 314.881 140.361 319.904 141.582C353.365 149.7 353.365 197.3 319.904 205.418C314.877 206.636 310.209 209.024 306.279 212.387C302.349 215.75 299.269 219.993 297.29 224.772C295.31 229.55 294.487 234.729 294.886 239.885C295.286 245.042 296.898 250.032 299.591 254.448C317.503 283.851 283.851 317.522 254.429 299.61C250.015 296.921 245.028 295.312 239.875 294.913C234.722 294.514 229.547 295.337 224.771 297.314C219.996 299.291 215.754 302.368 212.391 306.293C209.029 310.218 206.639 314.881 205.418 319.904C197.3 353.365 149.7 353.365 141.582 319.904C140.364 314.877 137.976 310.209 134.613 306.279C131.25 302.349 127.007 299.269 122.228 297.29C117.45 295.31 112.271 294.487 107.115 294.886C101.958 295.286 96.9682 296.898 92.552 299.591C63.1493 317.503 29.4781 283.851 47.3903 254.429C50.0791 250.015 51.6883 245.028 52.0872 239.875C52.4861 234.722 51.6634 229.547 49.686 224.771C47.7086 219.996 44.6322 215.754 40.707 212.391C36.7818 209.029 32.1185 206.639 27.0962 205.418C-6.36539 197.3 -6.36539 149.7 27.0962 141.582C32.123 140.364 36.7912 137.976 40.7209 134.613C44.6505 131.25 47.7306 127.007 49.7103 122.228C51.69 117.45 52.5134 112.271 52.1136 107.115C51.7138 101.958 50.102 96.9682 47.4094 92.552C29.4972 63.1493 63.1493 29.4781 92.5711 47.3903C111.55 58.9761 136.323 48.7242 141.582 27.0962Z" stroke="#E36255" stroke-width="3" stroke-linecap="round" stroke-linejoin="round"/>
<path d="M230.65 173.496C230.65 188.657 224.627 203.198 213.906 213.919C203.185 224.64 188.645 230.662 173.483 230.662C158.322 230.662 143.781 224.64 133.06 213.919C122.339 203.198 116.316 188.657 116.316 173.496C116.316 158.334 122.339 143.794 133.06 133.073C143.781 122.352 158.322 116.329 173.483 116.329C188.645 116.329 203.185 122.352 213.906 133.073C224.627 143.794 230.65 158.334 230.65 173.496Z" stroke="#E36255" stroke-width="3" stroke-linecap="round" stroke-linejoin="round"/>
</svg>
