<svg width="94" height="122" viewBox="0 0 94 122" fill="none" xmlns="http://www.w3.org/2000/svg">
<path d="M92.0614 121.414C91.3018 121.414 90.691 120.862 90.691 120.175V82.9827C90.691 72.2522 81.0362 63.519 69.1733 63.519H60.2858C60.5286 65.3039 60.5129 68.2645 58.4692 70.7506C56.2454 73.4562 52.291 74.8303 46.7158 74.8303C41.1406 74.8303 37.1863 73.4562 34.9625 70.7506C32.9188 68.2645 32.8953 65.3039 33.1459 63.519H24.2584C12.3954 63.519 2.74062 72.2522 2.74062 82.9827V120.175C2.74062 120.862 2.12985 121.414 1.37031 121.414C0.610767 121.414 0 120.862 0 120.175V82.9827C0 70.8852 10.8842 61.04 24.2584 61.04H34.7981C35.2287 61.04 35.6359 61.2242 35.8943 61.5358C36.1527 61.8475 36.231 62.2583 36.1057 62.6337C36.0979 62.6691 34.8842 66.5221 37.1628 69.2845C38.8463 71.3172 42.0568 72.3513 46.708 72.3513C51.3592 72.3513 54.5853 71.3172 56.261 69.2703C58.5475 66.4867 57.3181 62.6762 57.3103 62.6337C57.185 62.2583 57.2633 61.8546 57.5217 61.5358C57.7801 61.2242 58.1873 61.04 58.618 61.04H69.1576C82.5318 61.04 93.416 70.8852 93.416 82.9827V120.175C93.416 120.862 92.8053 121.414 92.0457 121.414H92.0614Z" fill="#F1E0CE"/>
<path d="M46.7256 80.0786C38.4959 80.0786 32.6701 78.1096 29.4127 74.2282C25.0747 69.0577 27.0166 62.5202 27.1027 62.244C27.3063 61.5853 28.058 61.1958 28.7941 61.3799C29.5223 61.5641 29.953 62.244 29.7494 62.9027C29.7337 62.9594 28.0972 68.5619 31.6208 72.7408C34.338 75.9635 39.4277 77.5996 46.7412 77.5996C54.0548 77.5996 58.9801 75.9918 61.5484 72.8258C64.9233 68.6611 63.0127 63.009 62.9892 62.9523C62.7621 62.3007 63.1615 61.6066 63.8819 61.3941C64.6022 61.1887 65.3696 61.5428 65.6045 62.1944C65.7063 62.4707 67.9693 69.0719 63.7722 74.2636C60.6636 78.1166 54.9318 80.0715 46.7412 80.0715L46.7256 80.0786Z" fill="#F1E0CE"/>
<path d="M20.0695 121.414C19.31 121.414 18.6992 120.862 18.6992 120.175V88.0471C18.6992 87.3601 19.31 86.8076 20.0695 86.8076C20.8291 86.8076 21.4398 87.3601 21.4398 88.0471V120.175C21.4398 120.862 20.8291 121.414 20.0695 121.414Z" fill="#F1E0CE"/>
<path d="M73.3293 121.414C72.5698 121.414 71.959 120.862 71.959 120.175V88.0471C71.959 87.3601 72.5698 86.8076 73.3293 86.8076C74.0888 86.8076 74.6996 87.3601 74.6996 88.0471V120.175C74.6996 120.862 74.0888 121.414 73.3293 121.414Z" fill="#F1E0CE"/>
<path d="M23.0215 48.0712C22.7318 48.0712 22.4421 47.9862 22.1915 47.8162C21.7374 47.5045 11.1664 40.0676 12.2861 27.5735C12.8812 20.9298 16.6241 14.1302 22.5595 8.92437C29.1135 3.17311 37.6956 0 46.724 0C47.4835 0 48.0943 0.552461 48.0943 1.2395C48.0943 1.92653 47.4835 2.47899 46.724 2.47899C32.5041 2.47899 16.3736 12.6428 15.0189 27.7718C14.0166 38.9343 23.7576 45.7763 23.8594 45.8472C24.4623 46.265 24.5798 47.0371 24.1178 47.5824C23.8516 47.9012 23.4365 48.0712 23.0294 48.0712H23.0215Z" fill="#F1E0CE"/>
<path d="M67.6338 32.9706C56.6244 32.9706 49.5066 25.994 46.8521 22.835C41.1907 29.6275 34.5115 31.809 29.7663 32.4323C24.2615 33.1476 20.1663 31.9719 19.994 31.9223C19.2736 31.7098 18.8821 31.0086 19.117 30.357C19.3519 29.7054 20.1271 29.3512 20.8397 29.5637C21.4426 29.7408 35.6077 33.6505 45.7167 20.0019C45.9751 19.6478 46.4214 19.4211 46.8912 19.4565C47.3611 19.4707 47.7917 19.6973 48.0345 20.0656C48.3947 20.611 57.0315 33.4026 72.9741 29.9037C73.7102 29.7408 74.4541 30.1516 74.6263 30.8174C74.8064 31.4832 74.3523 32.1489 73.6162 32.3118C71.5098 32.7722 69.5131 32.9776 67.626 32.9776L67.6338 32.9706Z" fill="#F1E0CE"/>
<path d="M46.7053 66.0969C31.5066 66.0969 20.0508 53.454 20.0508 36.689C20.0508 36.0019 20.6615 35.4495 21.4211 35.4495C22.1806 35.4495 22.7914 36.0019 22.7914 36.689C22.7914 52.0375 33.0726 63.6179 46.7053 63.6179C60.3379 63.6179 70.627 52.0375 70.627 36.689C70.627 36.0019 71.2378 35.4495 71.9973 35.4495C72.7568 35.4495 73.3676 36.0019 73.3676 36.689C73.3676 53.454 61.904 66.0969 46.7053 66.0969Z" fill="#F1E0CE"/>
<path d="M70.4067 48.0712C69.9917 48.0712 69.5845 47.9012 69.3183 47.5824C68.8563 47.0371 68.9738 46.258 69.5767 45.8472C69.6707 45.7834 79.4116 38.8918 78.4172 27.7718C77.3209 15.5539 64.3226 2.47899 46.7121 2.47899C45.9526 2.47899 45.3418 1.92653 45.3418 1.2395C45.3418 0.552461 45.9526 0 46.7121 0C55.7405 0 64.3147 3.16603 70.8766 8.92437C76.812 14.1302 80.5549 20.9298 81.15 27.5735C82.2697 40.0676 71.6909 47.5116 71.2446 47.8162C70.994 47.9862 70.7043 48.0712 70.4146 48.0712H70.4067Z" fill="#F1E0CE"/>
</svg>
