<svg width="126" height="120" viewBox="0 0 126 120" fill="none" xmlns="http://www.w3.org/2000/svg">
<path d="M16.9667 42.2721C16.7025 42.2721 16.4324 42.1664 16.2328 41.9609C8.47702 34.0408 6.24599 23.9189 10.2677 14.8833C14.4245 5.54228 24.3878 -0.422786 35.0732 0.0234205C35.6427 0.046905 36.0831 0.528338 36.0537 1.09197C36.0302 1.66147 35.5371 2.09593 34.9852 2.07245C25.1393 1.6556 15.9627 7.13923 12.1465 15.717C10.3851 19.6741 7.4026 30.0073 17.7006 40.5225C18.0998 40.9276 18.0939 41.5793 17.683 41.9727C17.4833 42.1664 17.225 42.2662 16.9667 42.2662V42.2721Z" fill="#F1E0CE"/>
<path d="M56.038 29.2616C46.5503 29.2616 42.4346 22.5568 40.9023 18.9225C37.7319 23.8191 32.3539 26.9953 25.2146 28.152C19.2026 29.1266 14.1123 28.3516 13.9009 28.3163C13.3432 28.2283 12.9557 27.6999 13.0437 27.1421C13.1318 26.5844 13.6543 26.1969 14.218 26.2849C14.4117 26.3143 33.8393 29.1853 40.1977 15.9811C40.3856 15.5877 40.8025 15.3588 41.2428 15.4057C41.6772 15.4586 42.0354 15.7756 42.1293 16.2042C42.235 16.6739 44.9005 27.7116 56.8894 27.1832C57.453 27.148 57.9344 27.5942 57.9638 28.1637C57.9873 28.7332 57.5528 29.2088 56.9833 29.2381C56.6663 29.2499 56.3551 29.2616 56.0439 29.2616H56.038Z" fill="#F1E0CE"/>
<path d="M53.0919 42.2722C52.8335 42.2722 52.5752 42.1724 52.3756 41.9787C51.9705 41.5794 51.9646 40.9336 52.358 40.5285C62.6559 30.0133 59.6734 19.6801 57.9121 15.723C54.0958 7.14525 44.9251 1.66749 35.0733 2.07847C34.5097 2.09608 34.0283 1.66161 34.0048 1.09799C33.9813 0.528486 34.4217 0.0529244 34.9853 0.0294399C45.6649 -0.410895 55.6341 5.54831 59.7908 14.8893C63.8125 23.9249 61.5874 34.0468 53.8257 41.9669C53.6261 42.1724 53.3561 42.2781 53.0919 42.2781V42.2722Z" fill="#F1E0CE"/>
<path d="M1.03132 71.1582C0.954992 71.1582 0.872796 71.1465 0.7906 71.1288C0.238714 70.9997 -0.101812 70.4419 0.0273531 69.89C0.626209 67.3654 2.59891 65.61 5.88674 64.6765L25.9249 58.9873L25.4552 54.3491C25.3965 53.7855 25.8075 53.2806 26.3711 53.2219C26.9348 53.1632 27.4397 53.5742 27.4984 54.1378L28.0561 59.6332C28.109 60.1263 27.7919 60.5902 27.3164 60.7252L6.45037 66.6492C3.89643 67.3772 2.44626 68.5866 2.02941 70.3597C1.91786 70.8294 1.49514 71.1523 1.03132 71.1523V71.1582Z" fill="#F1E0CE"/>
<path d="M35.0252 102.07C34.8961 102.07 34.7669 102.046 34.6377 101.993C34.3442 101.87 34.1328 101.629 34.0447 101.347L27.1814 86.194C27.0698 85.9416 27.0581 85.6598 27.1579 85.4015L32.7296 70.9174L29.6179 67.1246C29.4359 66.9074 29.3596 66.6256 29.3948 66.3438C29.43 66.0619 29.5827 65.8095 29.8058 65.6451L34.4205 62.2751C34.7786 62.0109 35.2718 62.0109 35.63 62.2751L40.2447 65.6451C40.4736 65.8095 40.6204 66.0678 40.6556 66.3438C40.6909 66.6256 40.6087 66.9074 40.4325 67.1246L37.2974 70.9467L42.0999 85.7889C42.1763 86.0179 42.1645 86.2704 42.0765 86.4935L36.0233 101.306C35.947 101.594 35.7474 101.841 35.4538 101.97C35.3129 102.034 35.1838 102.07 35.0252 102.064H35.0194L35.0252 102.07ZM29.2363 85.742L34.9841 98.4354L40.0392 86.0708L35.1779 71.0524C35.0722 70.7177 35.1368 70.3537 35.3599 70.0837L38.1604 66.6725L35.0311 64.3887L31.9018 66.6725L34.7023 70.0837C34.9372 70.3713 35.0017 70.7588 34.8667 71.1052L29.2363 85.7478V85.742Z" fill="#F1E0CE"/>
<path d="M37.6038 109.027C37.2046 109.027 36.823 108.792 36.6586 108.404L17.3015 63.0265C17.1136 62.5861 17.2545 62.0812 17.6361 61.7935C18.0177 61.5117 18.5461 61.5293 18.9101 61.8405L26.0964 67.9465L34.451 62.2574C34.9207 61.9344 35.5607 62.0577 35.8777 62.5274C36.1948 62.9971 36.0773 63.6371 35.6076 63.9541L26.6072 70.0836C26.2256 70.3419 25.7148 70.3184 25.3625 70.019L20.9005 66.2262L38.5491 107.594C38.7722 108.117 38.5315 108.722 38.0089 108.945C37.8798 109.003 37.7389 109.027 37.6038 109.027Z" fill="#F1E0CE"/>
<path d="M35.0305 102.07C34.9014 102.07 34.7722 102.046 34.643 101.993C34.1146 101.776 33.868 101.177 34.0794 100.655L47.9059 66.7664L44.7766 69.9603C44.4302 70.3185 43.8724 70.3713 43.4673 70.0895L34.4669 63.96C33.9972 63.643 33.8739 63.003 34.1968 62.5334C34.5139 62.0637 35.1538 61.9404 35.6235 62.2633L43.9135 67.9113L50.1017 61.6057C50.4481 61.2534 50.9883 61.1947 51.3992 61.4648C51.8102 61.7349 51.9687 62.2574 51.7867 62.7095L35.9875 101.43C35.8231 101.829 35.4415 102.07 35.0364 102.07H35.0305Z" fill="#F1E0CE"/>
<path d="M34.6196 64.0478C30.68 64.0478 27.7034 62.081 26.2649 60.4136C25.8951 59.985 25.942 59.3333 26.3706 58.9634C26.7992 58.5935 27.445 58.6405 27.8149 59.0691C28.0556 59.3451 33.7213 65.6213 42.6219 58.9223C43.074 58.5818 43.7198 58.6699 44.0603 59.1278C44.4009 59.5799 44.3128 60.2257 43.8549 60.5663C40.4496 63.1319 37.3085 64.0478 34.6137 64.0478H34.6196Z" fill="#F1E0CE"/>
<path d="M35.0312 57.1436C23.559 57.1436 14.5762 46.1705 14.5762 32.162C14.5762 31.5925 15.0341 31.1345 15.6036 31.1345C16.1731 31.1345 16.6311 31.5925 16.6311 32.162C16.6311 45.2311 24.5395 55.0887 35.0312 55.0887C45.5229 55.0887 53.4313 45.2311 53.4313 32.162C53.4313 31.5925 53.8893 31.1345 54.4588 31.1345C55.0283 31.1345 55.4862 31.5925 55.4862 32.162C55.4862 46.1705 46.5034 57.1436 35.0312 57.1436Z" fill="#F1E0CE"/>
<path d="M68.9774 70.9172C68.5135 70.9172 68.0908 70.6002 67.9793 70.1246C67.5566 68.3515 66.3941 67.3828 63.8343 66.6548L42.9682 60.7308C42.4868 60.5958 42.1756 60.132 42.2285 59.6388L42.7862 54.1434C42.845 53.5798 43.3499 53.1688 43.9135 53.2275C44.4771 53.2862 44.8881 53.7911 44.8294 54.3548L44.3597 58.993L64.3979 64.6821C66.7346 65.3455 69.224 66.4552 69.9813 69.6549C70.1105 70.2068 69.77 70.7587 69.2181 70.8937C69.1359 70.9114 69.0596 70.9231 68.9774 70.9231V70.9172Z" fill="#F1E0CE"/>
<path d="M124.867 120C124.297 120 123.839 119.542 123.839 118.972V88.1431C123.839 79.2484 116.6 72.0092 107.705 72.0092H101.042C101.224 73.4888 101.212 75.9429 99.6796 78.0037C98.0122 80.2464 95.0473 81.3854 90.867 81.3854C86.6868 81.3854 83.7219 80.2464 82.0544 78.0037C80.5221 75.9429 80.5045 73.4888 80.6923 72.0092H74.0286C65.1338 72.0092 57.8947 79.2484 57.8947 88.1431V118.972C57.8947 119.542 57.4368 120 56.8673 120C56.2978 120 55.8398 119.542 55.8398 118.972V88.1431C55.8398 78.1152 64.0007 69.9543 74.0286 69.9543H81.9312C82.2541 69.9543 82.5594 70.107 82.7531 70.3653C82.9469 70.6237 83.0056 70.9642 82.9116 71.2754C82.9058 71.3047 81.9957 74.4986 83.7042 76.7883C84.9665 78.4734 87.3737 79.3305 90.8611 79.3305C94.3486 79.3305 96.7675 78.4734 98.0239 76.7766C99.7383 74.4693 98.8165 71.3106 98.8107 71.2754C98.7167 70.9642 98.7754 70.6295 98.9692 70.3653C99.1629 70.107 99.4682 69.9543 99.7911 69.9543H107.694C117.722 69.9543 125.882 78.1152 125.882 88.1431V118.972C125.882 119.542 125.424 120 124.855 120H124.867Z" fill="#F1E0CE"/>
<path d="M90.8686 85.7359C84.698 85.7359 80.3299 84.1037 77.8875 80.8863C74.6349 76.6004 76.091 71.1814 76.1556 70.9524C76.3082 70.4064 76.8718 70.0835 77.4237 70.2361C77.9697 70.3888 78.2926 70.9524 78.14 71.4984C78.1283 71.5454 76.9012 76.1894 79.5432 79.6534C81.5805 82.3248 85.3967 83.681 90.8804 83.681C96.364 83.681 100.057 82.3482 101.983 79.7239C104.513 76.2716 103.081 71.5865 103.063 71.5395C102.893 70.9994 103.192 70.424 103.732 70.2478C104.272 70.0776 104.848 70.3711 105.024 70.9113C105.1 71.1403 106.797 76.6122 103.65 80.9157C101.319 84.1096 97.0216 85.73 90.8804 85.73L90.8686 85.7359Z" fill="#F1E0CE"/>
<path d="M70.8927 120C70.3232 120 69.8652 119.542 69.8652 118.972V92.3407C69.8652 91.7712 70.3232 91.3132 70.8927 91.3132C71.4622 91.3132 71.9201 91.7712 71.9201 92.3407V118.972C71.9201 119.542 71.4622 120 70.8927 120Z" fill="#F1E0CE"/>
<path d="M110.834 120C110.265 120 109.807 119.542 109.807 118.972V92.3407C109.807 91.7712 110.265 91.3132 110.834 91.3132C111.404 91.3132 111.862 91.7712 111.862 92.3407V118.972C111.862 119.542 111.404 120 110.834 120Z" fill="#F1E0CE"/>
<path d="M73.0959 59.2043C72.8787 59.2043 72.6615 59.1339 72.4736 58.9929C72.1331 58.7346 64.207 52.5699 65.0466 42.2132C65.4928 36.7061 68.2992 31.0698 72.7495 26.7546C77.6637 21.9872 84.0984 19.3569 90.8679 19.3569C91.4374 19.3569 91.8953 19.8149 91.8953 20.3844C91.8953 20.9539 91.4374 21.4118 90.8679 21.4118C80.2059 21.4118 68.1113 29.8369 67.0956 42.3776C66.3441 51.6305 73.6478 57.3021 73.7241 57.3608C74.1762 57.7072 74.2643 58.3471 73.9179 58.7992C73.7183 59.0634 73.4071 59.2043 73.1018 59.2043H73.0959Z" fill="#F1E0CE"/>
<path d="M106.548 46.6871C98.293 46.6871 92.9561 40.904 90.9658 38.2855C86.721 43.9159 81.7129 45.7242 78.155 46.2409C74.0276 46.8338 70.957 45.8592 70.8278 45.8181C70.2877 45.642 69.9941 45.0608 70.1703 44.5206C70.3464 43.9805 70.9276 43.6869 71.4619 43.8631C71.914 44.0098 82.5349 47.2507 90.1145 35.937C90.3082 35.6435 90.6429 35.4556 90.9952 35.4849C91.3474 35.4967 91.6703 35.6846 91.8523 35.9899C92.1224 36.4419 98.5983 47.0452 110.552 44.1449C111.104 44.0098 111.662 44.3503 111.791 44.9022C111.926 45.4541 111.585 46.006 111.033 46.141C109.454 46.5227 107.957 46.6929 106.542 46.6929L106.548 46.6871Z" fill="#F1E0CE"/>
<path d="M90.8681 74.1466C79.4723 74.1466 70.8828 63.6666 70.8828 49.7696C70.8828 49.2001 71.3408 48.7422 71.9103 48.7422C72.4798 48.7422 72.9377 49.2001 72.9377 49.7696C72.9377 62.4924 80.6465 72.0917 90.8681 72.0917C101.09 72.0917 108.804 62.4924 108.804 49.7696C108.804 49.2001 109.262 48.7422 109.832 48.7422C110.401 48.7422 110.859 49.2001 110.859 49.7696C110.859 63.6666 102.264 74.1466 90.8681 74.1466Z" fill="#F1E0CE"/>
<path d="M108.639 59.2043C108.328 59.2043 108.023 59.0634 107.823 58.7992C107.477 58.3471 107.565 57.7013 108.017 57.3608C108.087 57.3079 115.391 51.5953 114.645 42.3776C113.823 32.2499 104.077 21.4118 90.8732 21.4118C90.3037 21.4118 89.8457 20.9539 89.8457 20.3844C89.8457 19.8149 90.3037 19.3569 90.8732 19.3569C97.6426 19.3569 104.071 21.9813 108.991 26.7546C113.442 31.0698 116.248 36.7061 116.694 42.2132C117.534 52.5699 109.602 58.7405 109.267 58.9929C109.08 59.1339 108.862 59.2043 108.645 59.2043H108.639Z" fill="#F1E0CE"/>
</svg>
